<?xml version="1.0" encoding="utf-8"?>
<!-- Generator: Adobe Illustrator 25.1.0, SVG Export Plug-In . SVG Version: 6.00 Build 0)  -->
<svg version="1.1" id="Camada_1" xmlns="http://www.w3.org/2000/svg" xmlns:xlink="http://www.w3.org/1999/xlink" x="0px" y="0px"
	 viewBox="0 0 829 829" style="enable-background:new 0 0 829 829;" xml:space="preserve">
<style type="text/css">
	.st0{fill:#D652A2;}
	.st1{fill:#E87076;}
	.st2{fill:#D14EA6;}
	.st3{fill:#E0707D;}
	.st4{fill:#B14332;}
	.st5{fill:#DD6C83;}
	.st6{fill:#CB4BAB;}
	.st7{fill:#A62E52;}
	.st8{fill:#A9286B;}
	.st9{fill:#9B1F6D;}
	.st10{fill:#A23247;}
	.st11{fill:#DC5794;}
	.st12{fill:#BF4945;}
	.st13{fill:#D7569E;}
	.st14{fill:#A12659;}
	.st15{fill:#DE5D8A;}
	.st16{fill:#961D55;}
	.st17{fill:#F0796B;}
	.st18{fill:#DB5E94;}
	.st19{fill:#DF6483;}
	.st20{fill:#941E7E;}
	.st21{fill:#992D39;}
	.st22{fill:#BC3A84;}
	.st23{fill:#BC425F;}
	.st24{fill:#DA6687;}
	.st25{fill:#DB549C;}
	.st26{fill:#9B2B4E;}
	.st27{fill:#9B255B;}
</style>
<g>
	<g>
		<path class="st0" d="M633.91,616.64c-3.65,6.23-7.77,12.06-13.86,16.23c-5.09,2.02-8.22,5.65-9.18,11.07
			c-35.33,5.28-70.77,9.23-106.59,8.53c-0.9-0.02-1.84,0.23-2.71,0.53c-24.8,8.58-50.47,4.63-75.71,4.45
			c-24.77-0.17-49.22-1.66-73.13,7.46c-5.91,2.26-13.7,5.25-20.76,0.84c0.93-8.91,10.59-14.65,8.98-24.48
			c-0.35-8.33-0.7-16.67-1.05-25c1.64-0.72,4.6-1.27,4.73-2.2c1.49-10.97,8.99-10.89,17.9-12.4c12.19-2.07,24.16,1.41,35.54-0.15
			c19.07-2.62,37.98-1.28,56.93-2.11c14.34,11.38,31.16,12.32,48.33,10.99c12.51-0.97,23.37-7.69,35.21-11.05
			c5.75,7.7,13.93,5.8,21.64,5.23c3.63-0.27,7.52-2.67,10.75-1.88c17.14,4.15,34.09,3.51,50.65-1.79c6.61-2.11,9.86,7.09,16.12,3.19
			c1.79,4.76-4.82,6.65-3.83,11.15C633.97,615.7,633.9,616.17,633.91,616.64z"/>
		<path class="st1" d="M762.25,241.36c0.06,0.87-0.22,1.62-0.84,2.23c-0.69,1.02-1.39,2.04-2.08,3.06
			c-0.33,0.86-0.66,1.72-0.99,2.58c-0.62,0.9-1.24,1.8-1.86,2.71c0,0,0.06-0.08,0.06-0.08c-5.64,4.74-12.17,6.36-19.42,5.53
			c-8.25-0.95-16.49-2.57-24.75-2.66c-42.14-0.48-84.34,1.47-126.26-5.39c-7.93-1.3-16.98-2.43-24.55,2.36
			c-14.46,9.16-27.95,5.25-42.27-0.92c-16.07-6.93-32.45-7.31-47.46,3.83c0.11-5.54,0.22-11.08,0.33-16.62
			c0.66-1.82,1.31-3.65,1.97-5.47c0.54-4.59,4.09-6.58,7.21-9.41c12.9-11.69,28.7-19.76,40.6-32.65c4.92-0.37,7.24,4.09,11.01,5.86
			c0.03,9.65,8.69,14.48,12.44,22.06c3.04,6.13,8.51,7.31,13.82,4.56c8.85-4.57,19.13-6.13,26.97-12.74
			c11.33-3.24,12.15-15.72,19.73-22.26c20.64,1.82,42.11-2.51,61.52,8.33c-3.95,17.7,12.37,18.88,21.4,25.93
			c6.38,4.98,12.37,4.19,18.64-1.08c12.32-10.36,25.06-20.2,37.63-30.26c9.22,10.09,14.67,22.58,21.95,33.91
			c2.93,4.56,1.66,7.47-1.71,10.52C762.41,236.34,762.08,238.73,762.25,241.36z"/>
		<path class="st2" d="M331.97,665.75c7.07,4.41,14.85,1.41,20.76-0.84c23.92-9.12,48.36-7.64,73.13-7.46
			c25.24,0.18,50.91,4.13,75.71-4.45c0.86-0.3,1.81-0.55,2.71-0.53c35.82,0.7,71.26-3.25,106.59-8.53c0.24,0.79,0.34,1.6,0.31,2.42
			c-0.14,2.02-0.28,4.04-0.42,6.07c-3.47,3.24-1.92,7.44-2.15,11.3c0.27,0.85,0.19,1.66-0.26,2.44c-3.08,1.59-5.53,3.95-5.25,7.52
			c1.17,15.1-8.24,18.07-20.27,17.44c-23.85-1.25-46.77,5.97-71.08,5.36c-27.03-0.68-54.27,7.54-82.17,3.49
			c-8.73-1.27-18.04,3.04-27.4,2.5c-5.59-0.32-8.32,3.26-8.74,8.65c-5.64,0.16-10.5-4.43-16.41-2.67c-0.52-3.56-2.21-5.72-6.13-6.1
			c-17.52-1.73-34.62,2.95-52,3.31c-2.41,0.05-3.19,2.96-3.64,5.27c-3.81-0.28-5.35-2.72-5.84-6.14
			C316.1,691.3,322.16,677.45,331.97,665.75z"/>
		<path class="st3" d="M471.84,254.6c15.01-11.14,31.39-10.76,47.46-3.83c14.32,6.17,27.81,10.08,42.27,0.92
			c7.57-4.79,16.62-3.66,24.55-2.36c41.92,6.86,84.12,4.92,126.26,5.39c8.26,0.09,16.5,1.72,24.75,2.66
			c7.25,0.83,13.77-0.79,19.42-5.53c-4.88,12.02-12.37,22.57-19.12,33.52c-17.14-0.06-34.32,0.56-51.41-0.46
			c-9.27-0.55-15.97,6.47-25.39,5.42c-21.99-2.46-43.23,11.59-65.68,3.62c-0.33-0.12-1.08,0.17-1.25,0.48
			c-7.66,14.5-20.91,5.4-31.42,7.84c-16.4,3.81-32.66,2.08-48.98,2.33c-7.69,0.12-14.83,1.01-19.23,8.38
			c-13.9-4.8-28.34-1.91-42.51-2.96c1.95-9.29,13.45-12.27,14.65-22.05C468.08,276.85,469.96,265.73,471.84,254.6z"/>
		<path class="st4" d="M605.92,187.93c-7.58,6.54-8.4,19.02-19.73,22.26c-16.8-8.25-35.11-10.73-53.24-13.88
			c-3.77-1.77-6.09-6.24-11.01-5.86c-1.39-6.84-7.79-8.42-12.55-11.57c-9.78-6.45-21.75-9.55-29.47-19.17
			c5.55-2.7,11.09-5.4,16.64-8.1c4.63,0.36,4.74-1.96,3.15-5.28c9.29-16.21,18.79-32.29,27.73-48.68c2.83-5.18,6.15-6.17,11.15-4.28
			c1.96,1.86,3.65,4.16,5.92,5.52c24.08,14.46,48.01,29.2,72.53,42.88c8.9,4.97,9.28,9.7,4.62,17.48
			C616.07,168.6,611.14,178.35,605.92,187.93z"/>
		<path class="st5" d="M494.05,312.99c4.4-7.38,11.54-8.27,19.23-8.38c16.33-0.25,32.59,1.48,48.98-2.33
			c10.51-2.44,23.76,6.67,31.42-7.84c0.16-0.31,0.92-0.6,1.25-0.48c22.46,7.97,43.7-6.08,65.68-3.62
			c9.42,1.05,16.13-5.97,25.39-5.42c17.08,1.02,34.26,0.4,51.41,0.46c-0.75,8.5-1.83,17.02,2.22,25.09
			c0.94,8.16,4.15,16.05,2.98,24.46c-0.79,1.58-1.59,3.15-2.38,4.73c-12.15-9.07-23.56,1.84-35.56,1.48
			c-24.83-0.76-49.95-2.72-74.22,5.34c-20.65-16.86-44.05-19.24-69.09-12.99c-1.92-11.58-11-10.86-19.71-12.37
			C525.8,318.38,508.8,322.06,494.05,312.99z"/>
		<path class="st6" d="M393.43,711.13c0.42-5.39,3.16-8.98,8.74-8.65c9.36,0.54,18.67-3.77,27.4-2.5
			c27.9,4.05,55.14-4.17,82.17-3.49c24.31,0.61,47.23-6.61,71.08-5.36c12.03,0.63,21.44-2.35,20.27-17.44
			c-0.28-3.57,2.18-5.92,5.25-7.52c1.1,11.71-2.75,22.95-3.39,34.5c-0.1,1.73-0.78,4.02-2.02,4.99
			c-16.06,12.58-32.23,25.02-48.53,37.29c-1.46,1.1-3.46-0.41-4.49-2.16c-12.35-32.1-17.43-35.32-40.66-25.76
			c-0.39,0.16-0.64,0.64-0.96,0.97c-13.63,2.06-23.62,8.24-29.83,21.45c-6.24,13.29-14.86,25.45-21.83,38.43
			c-3.52,6.55-8.12,9.75-15.46,8.72c-13.9-1.94-28.62,4.2-41.85-4.25c12.94-4.58,7.24-16.43,9.2-24.93
			c3.88-16.79,7.92-34.57-14.35-43.14C393.83,712.14,393.67,711.52,393.43,711.13z"/>
		<path class="st7" d="M252.52,343.43c-1.83-11.92,8.38-18.46,12.48-27.73c5.81-2.97,7.8-8.17,8.34-14.2
			c7.01-7.88,4.88-25.02,22.54-22.11c0.96,1.05,1.92,2.09,2.88,3.14c0.24,6.01,5.74,6.4,9.42,8.74
			c23.87,15.16,49.88,26.88,72.17,44.58c-0.66,10.49-10.42,16.94-12.09,26.98c-7.35,11.21-14.7,22.43-22.05,33.64
			c-9.3-4.64-19.32-8.27-27.7-14.2c-9.48-6.7-18.08-9.61-28.22-2.5c-6.72,0.53-11.44,7.91-19.02,5.52
			c-0.11-2.97-0.22-5.95-0.33-8.92c-0.03-4.97,3.78-6.75,7.24-9.01c2.44-1.6,4.49-4.94,0.97-6.3
			C268.9,357.07,264.57,344.44,252.52,343.43z"/>
		<path class="st8" d="M245.51,571.87c-9.69-11.59-24.41-15.79-36.16-24.36c-4.76-3.47-9.75-6.62-14.6-9.98
			c-0.2-0.14-0.15-0.91,0.04-1.25c0.2-0.37,0.7-0.57,1.07-0.84c8.13-3.55,6.2-8.64,2.17-14.06c0.26-15.14,2.22-30.07,5.51-44.84
			c0.3,3.83,0.6,7.66,0.89,11.49c1-9.28,3.57-9.71,12.24-5.78c11.5,5.21,19.17,17.89,33.6,17.07c26.57-1.52,53.15-2.83,79.7-4.65
			c4.42-0.3,7.27-0.34,7.77,4.71c-8.59,13.08-23.69,18.94-33.86,30.27c-4.29,2.14-4.95,5.97-5.38,10.29
			c-1.87,18.98-4,37.94-6.04,56.91C275.11,591.71,262.07,578.51,245.51,571.87z"/>
		<path class="st9" d="M331.97,665.75c-9.81,11.7-15.87,25.55-22.55,39.04c-12.3-6.98-24.33-14.52-36.98-20.82
			c-18.37-9.13-33.16-24.8-54.07-29.2c0,0-0.41-0.58-0.41-0.58c-0.63-0.66-1.27-1.33-1.9-1.99c-4.79-4.09-2.37-8.12,0.01-12.25
			c9.9-17.21,19.76-34.44,29.63-51.67c0.89,0,1.78,0,2.67-0.01c6.73,2.89,14.45,4.52,20.02,8.88c22.48,17.6,49.63,27.39,72.57,44.11
			C342.56,651.11,332.9,656.84,331.97,665.75z"/>
		<path class="st10" d="M466.19,287.98c-1.2,9.78-12.7,12.76-14.64,22.05c-3.63,3.44-7.68,6.53-10.8,10.38
			c-5.78,7.13-10.96,14.79-21.73,14.16c-1.06-5.6-5.14-8.46-9.75-11.02c-22.35-12.44-47.51-17.59-70.91-27.26
			c-7.85-3.24-16.96-4.03-23.15-10.85c1.08-11.25-8.28-2.89-11.49-6.07c26.19,4.22,39.65-13.16,53.03-30.86
			c4.41-5.84,9.29-11.33,13.96-16.98c21.01,16.72,44.52,29.63,67.87,42.57C447.48,279.03,454.07,289.29,466.19,287.98z"/>
		<path class="st11" d="M710.61,498.98c5.04,5.83,10.03,11.7,12.55,19.17c0.94,8.77,1.87,17.53,2.81,26.3
			c0.11,0.9-0.19,1.65-0.89,2.23c-0.69,0.92-1.39,1.84-2.08,2.76c0,0,0.01-0.01,0.01-0.01c-21.61,4.46-43.86,3.09-65.56,7.97
			c-22.65,5.09-45.84,0.67-68.8,0.2c1.13-2.65,2.25-5.3,3.37-7.95c18.34-17.45,28.3-40.39,40.75-61.7
			C658.23,495.02,684.21,498.49,710.61,498.98z"/>
		<path class="st12" d="M479.93,159.72c7.71,9.62,19.69,12.71,29.47,19.17c4.76,3.14,11.16,4.73,12.55,11.57
			c-11.89,12.88-27.7,20.96-40.6,32.65c-3.12,2.83-6.67,4.82-7.21,9.41c-0.82-0.06-1.63-0.11-2.45-0.14
			c0.03-0.92,0.03-1.84-0.01-2.76c-1.14-8.03-9.22-7.52-13.9-11.18c-1.61-3.63-4.38-5.5-8.39-5.48c-0.93-0.02-1.86-0.04-2.78-0.06
			c-2.29-4.22-6.01-6.33-10.22-8.66c-19.13-10.61-37.87-21.93-56.74-33c14.77-11.76,29.67-23.36,44.22-35.38
			c5-4.13,8.22-0.92,12.26,1.17C450.73,144.56,462.87,156.85,479.93,159.72z"/>
		<path class="st13" d="M588.65,557.6c22.96,0.47,46.15,4.89,68.8-0.2c21.7-4.88,43.95-3.51,65.56-7.97
			c-7.79,14.06-15.68,28.06-23.32,42.2c-2.27,4.21-5.39,5.96-10.05,5.59c-2.3-0.18-4.65,0.25-6.93-0.02
			c-19.82-2.31-37.45,0.71-48.81,19.44c-0.01-0.46,0.06-0.94-0.04-1.38c-0.99-4.5,5.63-6.39,3.83-11.15
			c-6.26,3.9-9.51-5.31-16.12-3.19c-16.56,5.29-33.51,5.94-50.65,1.79c-3.23-0.78-7.12,1.62-10.75,1.88
			c-7.71,0.57-15.89,2.47-21.64-5.23c6.92-9.13,19.75-11.39,25.51-21.86C575.01,574.24,579.43,562.97,588.65,557.6z"/>
		<path class="st14" d="M271.28,385.28c7.58,2.39,12.3-4.99,19.02-5.52c-0.54,6.3,0.18,12.53,6.52,15.46
			c23.23,10.73,42.23,28.84,66.56,37.57c2.38,2.29,5.21,4.29,5.11,8.13c-7.95,15.16-9.98,32.71-19.31,47.31
			c-3.63-0.49-8.22,0.27-10.74-1.66c-26.48-20.23-57.91-32.28-84.97-51.48C259.4,418.48,265.34,401.88,271.28,385.28z"/>
		<path class="st15" d="M779.57,387.63c-0.14,4.81-0.27,9.62-0.41,14.43c-14.09,10.85-28.09,21.8-42.31,32.48
			c-4.48,3.37-7.78,7.49-10.48,12.25c-6.24-3.9-13.22-3.59-20.01-2.88c-6.73,0.7-13.8,5.1-20.08,1.74
			c-12.62-6.77-25.93-4.01-39.01-4.82c0.26-8.2,0.51-16.41,0.76-24.61c4.65-9.37,0.87-18.77,0.11-28.16
			c5.91-0.84,12.5-3.8,17.63-2.18c31.78,10.03,64.34,1.05,96.29,4.9C768.09,391.52,774.18,391.11,779.57,387.63z"/>
		<path class="st16" d="M253.46,435.08c27.06,19.2,58.49,31.25,84.97,51.48c2.52,1.93,7.11,1.17,10.74,1.66
			c-1.57,6-5.8,9.3-11.43,11.17c-0.5-5.05-3.35-5.01-7.77-4.71c-26.55,1.82-53.13,3.13-79.7,4.65c-14.43,0.82-22.1-11.85-33.6-17.07
			c-8.67-3.93-11.24-3.5-12.24,5.78c-0.3-3.83-0.6-7.66-0.89-11.49C217.57,459.61,237.02,449.13,253.46,435.08z"/>
		<path class="st17" d="M605.92,187.93c5.22-9.58,10.15-19.33,15.75-28.69c4.66-7.78,4.28-12.52-4.62-17.48
			c-24.52-13.69-48.45-28.43-72.53-42.88c-2.26-1.36-3.96-3.66-5.92-5.52c23.56-3.17,44.78,0.35,65.13,14.82
			c22.73,16.17,47.79,29.08,71.84,43.41c-5.58,14.37-1.56,30.48-8.14,44.67C648.03,185.43,626.56,189.76,605.92,187.93z"/>
		<path class="st18" d="M647.28,440.84c13.07,0.81,26.39-1.95,39.01,4.82c6.27,3.37,13.35-1.04,20.08-1.74
			c6.79-0.71,13.77-1.02,20.01,2.88c-3.19,18.01-13.75,33.82-15.76,52.19c-26.4-0.49-52.38-3.97-77.83-11.03
			C637.62,472.25,642.45,456.54,647.28,440.84z"/>
		<path class="st19" d="M63.96,114.48c7.81-2.96,5.73-9.7,6.01-15.55c2.08,1.74,3.95,4.6,6.29,5.06
			c30.09,5.91,60.24,11.47,90.38,17.12c0.21,1.88,0.41,3.76,0.61,5.64c-0.58,7.28,5.25,12.44,6.36,19.16
			c-12.31-2.88-24.39-7.31-37.4-5.13c-2.03-0.65-4.06-1.31-6.09-1.96c-18.57-13.36-28.92-9.27-40.04,15.84
			c-12.43-1.29-23.98-8.17-36.99-5.78c-9.23-11.97-7.94-26.53,2.93-32.8c1.3,2.3,2.81,4.66,5.88,3.82
			C64.62,119.17,63.87,116.54,63.96,114.48z"/>
		<path class="st12" d="M667.44,196.26c6.57-14.19,2.55-30.3,8.14-44.67c23.83,11.93,46.95,25.12,69.53,39.26
			c-12.57,10.06-25.32,19.9-37.63,30.26c-6.27,5.27-12.26,6.07-18.64,1.08C679.82,215.14,663.49,213.96,667.44,196.26z"/>
		<path class="st20" d="M393.43,711.13c0.24,0.39,0.4,1.01,0.75,1.15c22.27,8.57,18.23,26.35,14.35,43.14
			c-1.96,8.5,3.74,20.35-9.2,24.93c-21.42-12.2-42.84-24.39-64.26-36.59c2.01-3.82,5.73-5.77,8.88-8.44
			c10.84-9.18,24.1-15.43,33.08-26.86C382.93,706.7,387.79,711.29,393.43,711.13z"/>
		<path class="st21" d="M466.19,287.98c-12.13,1.31-18.72-8.95-27.63-13.89c-23.35-12.94-46.86-25.84-67.87-42.57
			c0.22-7.28-0.01-14.62,3.12-21.47c4.14,8,4.95,18.94,17.49,19.49c27.12,1.19,52.93,14.87,80.86,8.44
			c-0.11,5.54-0.22,11.08-0.33,16.62C469.96,265.73,468.08,276.85,466.19,287.98z"/>
		<path class="st1" d="M166.63,121.11c-30.14-5.65-60.29-11.22-90.38-17.12c-2.34-0.46-4.2-3.32-6.29-5.06
			c-2.39-3.33-3.38-7.04-3.03-11.11c0.04-2.72,0.07-5.44,0.11-8.17c1.22-2.99,3.05-5.33,6.48-5.9c4.08-0.6,6.75,1.4,9.44,4.29
			c10.21,10.94,14.96,9.9,20.37-4.15c6.55,0.9,13.09,1.8,19.64,2.7c4.44,4.06,1.23,13.9,10.76,14.1c4.9,13.83,9.52,6.12,14.15-0.18
			c2.82-0.03,5.63-0.07,8.45-0.1c3.56,4.95,5.67,11.1,11.63,14.09C167.52,110.04,167.08,115.58,166.63,121.11z"/>
		<path class="st6" d="M97.97,279.26c-17.93-9.31-14.61-25.74-13.94-41.28c2.97,6.66,8.07,10.98,15.01,12.94
			c27.91,7.89,54.69,19.39,83.06,25.77c1.64,3.78,3.28,7.55,4.92,11.32c0.04,1.93,0.09,3.85,0.13,5.78
			c-4.21,3.1-9.17,4.16-14.16,5.15c-2.21-3.46-4.38-6.94-6.62-10.37c-4.7-7.2-12.56-6.87-16.13-1.79
			c-2.89,4.12-8.84,12.56,0.62,18.16c-12.22,3.41-21.44,0.99-24.54-12.8c-1.76-7.83-4.06-15.14-12.66-18.18
			c-4.42-2.11-9.31-5.68-10.29,3.2c0,0,0.13-0.29,0.13-0.29C101.66,277.67,99.81,278.47,97.97,279.26z"/>
		<path class="st0" d="M182.1,276.69c-28.38-6.38-55.16-17.88-83.06-25.77c-6.94-1.96-12.04-6.29-15.01-12.94
			c-2.28-4.57-4.57-9.13-6.85-13.7c13.06-0.1,24.34,7.97,37.36,8.03c9.64,4.76,19.11,10.49,30.53,5.57
			c12.28,5.61,24.56,11.22,36.83,16.83c-0.2,1.82-0.4,3.64-0.6,5.46C181.57,265.68,181.83,271.19,182.1,276.69z"/>
		<path class="st22" d="M218.36,654.78c20.91,4.4,35.7,20.06,54.07,29.2c12.65,6.29,24.68,13.84,36.98,20.82
			c0.49,3.41,2.03,5.85,5.84,6.13c0.98,11.45,11.68,18.37,13.78,29.3c-29.73-17.5-59.87-34.37-89-52.82
			C228.74,680.25,223.67,666.96,218.36,654.78z"/>
		<path class="st10" d="M472.17,237.98c-27.93,6.43-53.74-7.25-80.86-8.44c-12.54-0.55-13.36-11.48-17.49-19.49
			c-0.29-6.03-0.61-12.07,2.44-17.65c1.64,4.86-1.48,10.79,3.37,14.93c22.44,0.52,44.28,8.18,66.98,5.54
			c0.93,0.02,1.85,0.04,2.78,0.06c0.3,5.62,4.33,5.57,8.39,5.48c4.69,3.66,12.76,3.15,13.9,11.18c-0.36,0.26-1.08,0.65-1.03,0.76
			c0.25,0.7,0.68,1.34,1.04,2c0.82,0.03,1.64,0.08,2.45,0.14C473.48,234.33,472.83,236.15,472.17,237.98z"/>
		<path class="st16" d="M340.94,641.27c-22.93-16.72-50.09-26.51-72.57-44.11c-5.57-4.36-13.29-5.99-20.02-8.88
			c-0.01-2.96,0.62-6.09-2.19-8.31c-0.22-2.7-0.43-5.4-0.65-8.1c16.56,6.64,29.6,19.84,46.96,25c7.79,0.75,15.66,2.63,23.33,2.02
			c13.6-1.08,23.45,1.39,24.09,17.39C340.24,624.61,340.59,632.94,340.94,641.27z"/>
		<path class="st13" d="M114.54,232.32c-13.02-0.06-24.3-8.13-37.36-8.03c-10.15-5.86-23.33-8.45-23.63-24.3
			c-0.09-4.71-1.57-9.68,2.49-12.73c6.76-5.1,5.72-11.93,5.7-18.73c6.45,20,8.73,21.67,30.1,22.12c3.04,7.9,3.62,17.01,11.2,22.68
			c1.24,5.53,3.25,10.56,8.71,13.34C112.69,228.55,113.61,230.44,114.54,232.32z"/>
		<path class="st6" d="M329.04,740.22c-2.11-10.93-12.8-17.85-13.78-29.3c0.45-2.31,1.23-5.21,3.64-5.26
			c17.38-0.36,34.48-5.04,52-3.31c3.93,0.39,5.62,2.54,6.13,6.1c-8.98,11.44-22.24,17.68-33.08,26.86
			c-3.15,2.67-6.87,4.61-8.88,8.44C333.06,742.58,331.05,741.4,329.04,740.22z"/>
		<path class="st4" d="M446.6,212.87c-22.7,2.64-44.54-5.03-66.98-5.54c-0.98-5.59,2.46-11.98-3.05-16.75
			c-0.1-6.63-1.11-13.41,3.06-19.37c18.88,11.07,37.61,22.39,56.74,33C440.59,206.55,444.32,208.65,446.6,212.87z"/>
		<path class="st7" d="M220.48,137.8c12.95-1.65,10.57,9.77,13.84,16.25c4.76,9.43-0.63,15.16-7.87,20.04
			c-2.89-0.04-5.78-0.08-8.67-0.12c-6.42-6.21-12.76,2.55-19.16,0.1c-5.52-9.37-2.71-23.88-17.22-27.7c2.1-3.21,5.66-2.22,8.58-3.16
			C199.93,140.01,210.93,142.97,220.48,137.8z"/>
		<path class="st4" d="M156.33,90.41c-2.82,0.03-5.63,0.07-8.45,0.1c-4.72,0.06-9.44,0.12-14.15,0.18
			c-9.53-0.2-6.32-10.05-10.76-14.1c0.52-5.31-3.21-11.96,5.68-14.37c9.98-2.7,19.27-7.97,30.01-7.81
			c5.48,7.76,2.76,19.17,11.44,25.5C166.37,84.52,158.82,84.18,156.33,90.41z"/>
		<path class="st8" d="M240.16,212.72c4.07,17.2,1.09,23.83-14.11,29.53c-3.82,1.43-5.98,4.04-8.31,6.84
			c-2.77-4.46-5.6-0.81-8.41-0.06c-2.71,0.02-5.41,0.04-8.12,0.07c3.07-12.6,6.14-25.2-8.19-33.58c-0.11-0.89-0.15-1.79-0.12-2.68
			c1.76,0.02,3.53,0.05,5.29,0.07c7.67-0.12,14.31,3.64,21.36,5.78C227.93,221.22,234.91,220.31,240.16,212.72z"/>
		<path class="st9" d="M201.21,249.09c2.71-0.02,5.41-0.04,8.12-0.07c1.92,3.24,5.1,2.75,8.12,2.75
			c1.37,9.39,12.04,18.41,1.13,28.28c-11.14,0.19-21.43,3.74-31.55,7.97c-1.64-3.77-3.29-7.55-4.92-11.32
			c-0.26-5.51-0.53-11.01-0.8-16.52c7.76-1.29,17.82,1.75,19.8-10.43L201.21,249.09z"/>
		<path class="st18" d="M91.85,190.64c-21.37-0.45-23.65-2.12-30.1-22.12c0.38-7.98-4.77-13.53-8.66-19.64
			c13.01-2.39,24.56,4.5,36.99,5.78c-0.1,4.56-0.19,9.13-0.28,13.69C88.22,175.99,90.53,183.27,91.85,190.64z"/>
		<path class="st10" d="M220.48,137.8c-9.54,5.18-20.54,2.21-30.5,5.41c-2.93,0.94-6.49-0.05-8.58,3.16
			c-2.59-0.15-5.18-0.3-7.78-0.45c-1.12-6.72-6.94-11.88-6.36-19.16c12.29-3.01,24.58-6.02,36.86-9.03
			C210.39,123.75,210.25,134.96,220.48,137.8z"/>
		<path class="st12" d="M156.33,90.41c2.49-6.24,10.04-5.89,13.78-10.5c2.15,0.42,4.85,1.9,6.36,1.1
			c15.22-7.99,22.95,0.7,29.4,12.61c-11.98,5.91-24.64,9.47-37.91,10.88C162,101.51,159.89,95.37,156.33,90.41z"/>
		<path class="st21" d="M167.96,104.5c13.28-1.41,25.94-4.97,37.91-10.88c-0.58,8.03-1.17,16.07-1.75,24.1
			c-12.29,3.01-24.57,6.02-36.86,9.03c-0.21-1.88-0.41-3.76-0.62-5.64C167.08,115.58,167.52,110.04,167.96,104.5z"/>
		<path class="st14" d="M217.77,173.97c2.89,0.04,5.78,0.08,8.67,0.12c-1.22,8.49,1.54,16.61,2.35,24.92
			c-9.92-1.4-18.12,5.81-27.82,5.54c-2.92-4.04-7.27-2.39-11.11-2.77c-0.68-5.78-6.08-12.14,2.09-16.83
			C201.32,183.07,213.26,187.19,217.77,173.97z"/>
		<path class="st16" d="M200.97,204.54c9.7,0.27,17.89-6.94,27.82-5.54c3.79,4.57,7.58,9.14,11.37,13.71
			c-5.24,7.6-12.23,8.5-20.62,5.96c-7.05-2.14-13.69-5.9-21.36-5.78C199.11,210.11,200.04,207.33,200.97,204.54z"/>
		<path class="st23" d="M742.62,334.94c1.17-8.42-2.04-16.3-2.98-24.46c15.02,8.23,30.04,16.46,45.07,24.69
			c0.21,1.13,0.43,2.26,0.63,3.38C771.09,337.34,756.86,336.14,742.62,334.94z"/>
		<path class="st20" d="M508.3,715.99c0.32-0.33,0.57-0.81,0.96-0.97c23.23-9.56,28.32-6.33,40.66,25.76
			C536.05,732.52,522.17,724.25,508.3,715.99z"/>
		<path class="st17" d="M158.67,54.41c-10.74-0.15-20.03,5.11-30.01,7.81c-8.9,2.41-5.16,9.07-5.68,14.37
			c-6.54-0.9-13.09-1.8-19.64-2.7c-0.04-3.66-0.08-7.32-0.12-10.98c16.75-5.22,32.35-15.61,51.24-11.22
			C156.26,52.12,158.05,52.29,158.67,54.41z"/>
		<path class="st12" d="M103.22,62.92c0.04,3.66,0.08,7.32,0.12,10.98c-5.41,14.04-10.16,15.09-20.37,4.15
			c-2.69-2.89-5.36-4.89-9.44-4.29C81.9,66,92.65,64.73,103.22,62.92z"/>
		<path class="st20" d="M150.86,304.94c-9.46-5.6-3.51-14.04-0.62-18.16c3.56-5.08,11.43-5.4,16.13,1.79
			c2.24,3.43,4.42,6.92,6.62,10.37C165.62,300.94,158.24,302.94,150.86,304.94z"/>
		<path class="st23" d="M252.52,343.43c12.05,1.01,16.37,13.64,26.63,17.62c3.52,1.37,1.47,4.71-0.97,6.3
			c-3.46,2.26-7.27,4.04-7.24,9.01C263.52,366.1,257.71,354.94,252.52,343.43z"/>
		<path class="st22" d="M187.02,288.02c10.12-4.22,20.41-7.77,31.55-7.97c-8.06,10.05-20.07,11.16-31.42,13.75
			C187.11,291.87,187.06,289.95,187.02,288.02z"/>
		<path class="st13" d="M725.96,544.44c-0.94-8.76-1.87-17.53-2.81-26.3C727.54,526.55,737.25,534.38,725.96,544.44z"/>
		<path class="st21" d="M303.71,279.37c3.22,3.18,12.57-5.19,11.5,6.06c-5.48-0.97-10.96-1.94-16.44-2.9
			c-0.96-1.05-1.92-2.09-2.88-3.14C298.5,279.38,301.1,279.37,303.71,279.37z"/>
		<path class="st20" d="M103.38,277.16c0.98-8.88,5.87-5.31,10.29-3.2C110.8,276.85,107.12,277.1,103.38,277.16z"/>
		<path class="st23" d="M273.34,301.5c-0.54,6.04-2.53,11.23-8.34,14.2C266.75,310.37,269.46,305.59,273.34,301.5z"/>
		<path class="st16" d="M198.03,521.38c4.04,5.42,5.96,10.51-2.17,14.06c0.36-1.96,0.72-3.92,1.08-5.87c1.98-2.5,1.46-5.34,1.1-8.15
			L198.03,521.38z"/>
		<path class="st6" d="M611.18,646.36c0.03-0.82-0.07-1.63-0.31-2.42c0.95-5.42,4.09-9.05,9.18-11.07
			C617.09,637.37,614.14,641.86,611.18,646.36z"/>
		<path class="st21" d="M376.58,190.58c5.51,4.77,2.07,11.16,3.05,16.75c-4.85-4.14-1.73-10.07-3.37-14.93
			C375.82,191.7,375.93,191.09,376.58,190.58z"/>
		<path class="st16" d="M217.45,251.77c-3.02,0-6.2,0.49-8.12-2.75c2.81-0.75,5.64-4.4,8.41,0.06
			C217.87,250.01,217.77,250.9,217.45,251.77z"/>
		<path class="st23" d="M63.96,114.48c-0.1,2.05,0.66,4.69-2.07,5.43c-3.07,0.84-4.58-1.52-5.88-3.82
			C58.66,115.56,61.31,115.02,63.96,114.48z"/>
		<path class="st6" d="M608.61,663.72c0.23-3.86-1.32-8.05,2.15-11.3C611.31,656.43,611.66,660.4,608.61,663.72z"/>
		<path class="st12" d="M499.72,146.33c1.59,3.33,1.48,5.65-3.15,5.28C497.62,149.85,498.67,148.09,499.72,146.33z"/>
		<path class="st8" d="M246.16,579.96c2.82,2.22,2.19,5.35,2.19,8.31c-0.89,0.01-1.78,0.01-2.67,0.01
			C245.84,585.51,246,582.74,246.16,579.96z"/>
		<path class="st5" d="M67.04,79.66c-0.04,2.72-0.07,5.45-0.11,8.17C64.14,85.07,63.36,82.34,67.04,79.66z"/>
		<path class="st8" d="M198.04,521.42c0.36,2.81,0.87,5.65-1.1,8.15C195.72,526.63,195.99,523.9,198.04,521.42z"/>
		<path class="st3" d="M762.25,241.36c-0.17-2.64,0.16-5.02,3.1-6.09C764.31,237.3,763.28,239.33,762.25,241.36z"/>
		<path class="st20" d="M97.97,279.26c1.84-0.79,3.69-1.59,5.53-2.38C101.66,277.67,99.81,278.46,97.97,279.26z"/>
		<path class="st13" d="M723,549.43c0.69-0.92,1.39-1.84,2.08-2.76C724.38,547.59,723.69,548.51,723,549.43z"/>
		<path class="st3" d="M759.33,246.65c0.69-1.02,1.39-2.04,2.08-3.06C760.72,244.62,760.02,245.63,759.33,246.65z"/>
		<path class="st3" d="M756.48,251.94c0.62-0.9,1.24-1.81,1.86-2.71C757.72,250.14,757.1,251.04,756.48,251.94z"/>
		<path class="st22" d="M216.05,652.21c0.63,0.66,1.27,1.33,1.9,1.99C217.31,653.54,216.68,652.87,216.05,652.21z"/>
		<path class="st24" d="M742.62,334.94c14.23,1.2,28.47,2.4,42.71,3.61c1.06,11.07-0.92,21.84-3.28,32.57
			c-5.53,4.36-2.47,10.38-3.08,15.69c0,0,0.59,0.83,0.59,0.82c-5.38,3.47-11.48,3.88-17.49,3.16c-31.95-3.86-64.51,5.13-96.29-4.9
			c-5.13-1.62-11.72,1.33-17.64,2.18c-2.51-15.29-9.43-28.72-17.7-41.58c24.27-8.06,49.4-6.1,74.22-5.34
			c12,0.37,23.4-10.54,35.56-1.48C741.03,338.09,741.83,336.52,742.62,334.94z"/>
		<path class="st15" d="M778.97,386.82c0.61-5.31-2.45-11.34,3.08-15.69C782.14,376.57,782.95,382.16,778.97,386.82z"/>
		<path class="st25" d="M339.9,616.27c-0.64-16-10.49-18.47-24.09-17.39c-7.67,0.61-15.54-1.27-23.33-2.02
			c2.03-18.97,4.16-37.93,6.03-56.91c0.43-4.32,1.09-8.15,5.38-10.29c3.32,1.6,6.53,3.02,10.49,2.87c25.1-1,50.22-2.72,75.3-2.24
			c13.28,0.26,27.4,0.11,39.5,7.93c0.43,3.78,2.32,6.03,6.34,6.07c0.08,0.75,0.05,1.5-0.09,2.24l-0.05,0.05
			c-1.16,0.8-5.04-1.02-2.89,2.98c0.64,19.69,9.17,35.85,22.51,49.86c-18.95,0.83-37.86-0.52-56.93,2.11
			c-11.38,1.57-23.35-1.92-35.54,0.15c-8.91,1.51-16.41,1.43-17.9,12.4C344.5,615,341.54,615.55,339.9,616.27z"/>
		<path class="st22" d="M455,599.41c-13.33-14.01-21.87-30.16-22.51-49.86c0.96-0.99,1.93-1.98,2.89-2.97c0,0,0.05-0.05,0.05-0.05
			c5.05,2.5,11.9,0.89,15.64,2.81c19.91,10.22,42.14,8.25,62.95,13.33c17.01,4.15,34.49,5.94,50.04,14.82
			c-5.76,10.47-18.6,12.73-25.51,21.86c-11.85,3.37-22.7,10.08-35.21,11.05C486.15,611.73,469.34,610.79,455,599.41z"/>
		<path class="st12" d="M532.95,196.31c18.13,3.15,36.44,5.63,53.24,13.88c-7.84,6.62-18.12,8.17-26.97,12.74
			c-5.31,2.74-10.79,1.56-13.82-4.56C541.64,210.79,532.99,205.96,532.95,196.31z"/>
		<path class="st19" d="M419.01,334.57c10.78,0.63,15.95-7.03,21.73-14.16c3.12-3.85,7.18-6.95,10.8-10.38
			c14.16,1.05,28.6-1.84,42.5,2.96c14.75,9.06,31.75,5.39,47.62,8.13c8.71,1.51,17.79,0.79,19.71,12.36
			c-2.93,2.46-5.86,4.93-8.79,7.4c-5.54-3.21-9.69,0.76-13.72,3.18c-8.53,5.11-16.68,10.84-24.99,16.32
			c-0.99,0.92-1.99,1.85-2.98,2.77c0,0,0.01-0.01,0.01-0.01c-0.95,0.9-1.89,1.8-2.84,2.7l-0.05,0.05c-0.92,0.89-1.84,1.77-2.76,2.66
			l-0.11,0.11c-0.9,0.86-1.8,1.73-2.69,2.59l-0.19,0.17c-0.87,0.84-1.74,1.68-2.61,2.52l-0.23,0.2
			c-10.03-1.84-20.03-5.04-30.09-5.26c-29.39-0.63-58.48-9.07-88.14-3.22c-4.2,0.83-9.41,1.61-12.92-2.84
			c1.67-10.04,11.43-16.49,12.08-26.99C393.23,335.41,406.12,334.99,419.01,334.57z"/>
		<path class="st26" d="M552.58,340.89c2.93-2.47,5.86-4.94,8.79-7.4c25.04-6.24,48.43-3.85,69.09,13
			c8.26,12.86,15.18,26.29,17.69,41.58c0.76,9.39,4.54,18.79-0.11,28.15c-5.03-3.79-2.83-9.29-3.25-14.12
			c-0.33-3.78-0.33-8.42-5.28-8.1c-18.19,1.18-35.35-8.73-53.33-5.47c-12.47,2.26-24.73,2.3-37.16,2.03
			C551.35,374.08,554.02,357.63,552.58,340.89z"/>
		<path class="st15" d="M368.26,362.82c3.51,4.45,8.72,3.67,12.92,2.84c29.66-5.84,58.75,2.59,88.14,3.22
			c10.06,0.22,20.06,3.42,30.09,5.26c-17.78,19.71-32.62,41.52-46.04,64.34c-4.91-0.89-8.93,0.73-12.84,3.74
			c-5.42,4.17-12.04,5.74-18.46,3.74c-17.57-5.48-35.54-5.29-53.58-5.05c0.1-3.84-2.73-5.84-5.12-8.13
			c-2.6-13.57-14.02-23.01-17.16-36.33C353.57,385.25,360.92,374.04,368.26,362.82z"/>
		<path class="st23" d="M419.01,334.57c-12.89,0.42-25.78,0.84-38.67,1.27c-22.28-17.69-48.3-29.41-72.17-44.57
			c-3.68-2.34-9.18-2.73-9.42-8.74c5.48,0.97,10.97,1.94,16.45,2.91c6.18,6.83,15.29,7.61,23.15,10.85
			c23.4,9.67,48.56,14.82,70.91,27.26C413.87,326.11,417.95,328.97,419.01,334.57z"/>
		<path class="st16" d="M346.22,396.46c3.14,13.32,14.56,22.75,17.16,36.33c-24.33-8.72-43.33-26.84-66.56-37.56
			c-6.34-2.93-7.06-9.16-6.52-15.46c10.14-7.11,18.74-4.2,28.22,2.5C326.9,388.19,336.92,391.82,346.22,396.46z"/>
		<path class="st11" d="M368.49,440.92c18.04-0.24,36.02-0.43,53.58,5.05c6.42,2,13.03,0.43,18.46-3.74
			c3.92-3.01,7.93-4.63,12.84-3.74c-13.75,31.88-25.13,64.32-24.2,99.74c-12.09-7.82-26.22-7.67-39.49-7.93
			c-25.08-0.48-50.2,1.24-75.3,2.24c-3.96,0.16-7.17-1.26-10.49-2.87c10.17-11.33,25.26-17.19,33.86-30.27
			c5.63-1.87,9.86-5.17,11.43-11.17C358.51,473.63,360.54,456.07,368.49,440.92z"/>
		<path class="st27" d="M549.02,390.56c12.44,0.27,24.69,0.24,37.16-2.03c17.97-3.26,35.14,6.66,53.33,5.47
			c4.95-0.32,4.95,4.32,5.28,8.1c0.42,4.83-1.78,10.32,3.25,14.12c-0.25,8.21-0.5,16.41-0.76,24.62
			c-4.83,15.7-9.66,31.41-14.5,47.11c-12.46,21.31-22.42,44.24-40.76,61.69c-6.64-7.01-11.25-16.79-22.95-16.93
			c-27.36-0.31-53.67-8.02-80.63-11.17c-5.69-0.67-8.04-3.86-8.65-9.03C513.04,477.59,536.33,437.06,549.02,390.56z"/>
		<path class="st8" d="M479.79,512.51c0.61,5.17,2.96,8.36,8.65,9.03c26.95,3.16,53.27,10.86,80.63,11.17
			c11.7,0.13,16.31,9.92,22.95,16.93c-1.12,2.65-2.25,5.3-3.37,7.95c-9.22,5.37-13.64,16.64-24.59,19.89
			c-15.54-8.87-33.02-10.67-50.03-14.81c-20.82-5.08-43.04-3.1-62.95-13.33c-3.74-1.92-10.58-0.31-15.64-2.81
			c0.14-0.74,0.17-1.49,0.09-2.24c0.66-0.51,1.41-0.78,2.24-0.81c4.19,0.38,8.12,0.32,8.89-5.16
			C457.69,529.72,468.74,521.12,479.79,512.51z"/>
		<path class="st4" d="M457.78,218.42c-4.05,0.08-8.09,0.14-8.39-5.48C453.4,212.92,456.17,214.78,457.78,218.42z"/>
		<path class="st21" d="M471.69,232.36c-0.37-0.66-0.79-1.3-1.04-2c-0.04-0.12,0.67-0.5,1.03-0.76
			C471.72,230.52,471.72,231.44,471.69,232.36z"/>
		<path class="st15" d="M156.57,173.95c-5.39-11.9-12.54-22.73-20.35-33.16c13-2.19,25.09,2.24,37.4,5.13
			c2.6,0.15,5.19,0.3,7.78,0.45c14.51,3.82,11.69,18.33,17.21,27.7c-0.57,3.82-2.48,6.66-6.11,8.23
			C180.13,181.17,169.41,173.04,156.57,173.95z"/>
		<path class="st26" d="M130.13,138.83c-3.26,10.62-1.25,21.55-1.92,32.32c-12.94,0.98-25.41-4.59-38.41-2.79
			c0.09-4.56,0.18-9.13,0.28-13.69C101.21,129.56,111.56,125.47,130.13,138.83z"/>
		<path class="st12" d="M133.73,90.7c4.72-0.06,9.44-0.12,14.15-0.18C143.25,96.82,138.63,104.52,133.73,90.7z"/>
		<path class="st13" d="M156.24,221.19c5.15-4.06,1.35-10.86,4.76-15.44c7.73,12.88,20.48,9.33,32.02,9.75
			c14.32,8.39,11.26,20.99,8.19,33.59c0,0-0.11,0.66-0.11,0.65c-6.86-0.1-14.65-3.75-19.19,4.98
			c-12.28-5.61-24.56-11.22-36.83-16.83c2.79-3.12,6.92-5.54,5.76-10.76C154.2,226.57,156.19,224.76,156.24,221.19z"/>
		<path class="st22" d="M150.83,227.13c1.15,5.22-2.97,7.63-5.76,10.76c-11.42,4.92-20.89-0.81-30.53-5.57
			c-0.92-1.88-1.85-3.76-2.78-5.65C124.89,218.1,137.87,221.89,150.83,227.13z"/>
		<path class="st16" d="M181.9,254.72c4.55-8.73,12.33-5.08,19.19-4.98c-1.98,12.18-12.04,9.14-19.79,10.44
			C181.5,258.36,181.7,256.54,181.9,254.72z"/>
		<path class="st27" d="M89.8,168.36c13-1.81,25.47,3.77,38.41,2.79c3.62,13.83,8.63,27.06,17,38.82
			c-6.27,5.46-12.86,2.86-19.26,0.54c-8.21-2.97-15.83-2.63-22.9,2.82c-7.58-5.68-8.16-14.78-11.2-22.68
			C90.53,183.27,88.22,175.99,89.8,168.36z"/>
		<path class="st8" d="M103.05,213.33c7.07-5.45,14.7-5.8,22.9-2.82c6.4,2.32,13,4.93,19.26-0.54c3.68,3.74,7.35,7.48,11.03,11.22
			c-0.05,3.56-2.04,5.37-5.41,5.93c-12.96-5.23-25.94-9.03-39.07-0.45C106.3,223.88,104.29,218.86,103.05,213.33z"/>
		<path class="st16" d="M192.49,182.29c3.63-1.57,5.54-4.4,6.11-8.23c6.4,2.45,12.74-6.31,19.16-0.1
			c-4.51,13.22-16.44,9.1-25.81,10.97C192.25,184.08,192.42,183.2,192.49,182.29z"/>
		<path class="st11" d="M192.49,182.29c-0.07,0.9-0.25,1.79-0.53,2.65c-8.18,4.69-2.77,11.05-2.1,16.83
			c-0.52,4.1,0.33,7.83,3.03,11.05c-0.03,0.9,0.01,1.79,0.12,2.68c-11.53-0.42-24.29,3.13-32.01-9.75c0.18-2.71,0.37-5.41,0.56-8.12
			c0.09-3.38,1.15-6.94-2.01-9.64c-1-4.68-1.99-9.36-2.99-14.05C169.41,173.04,180.13,181.17,192.49,182.29z"/>
		<path class="st27" d="M192.89,212.82c-2.7-3.22-3.55-6.95-3.03-11.05c3.84,0.38,8.19-1.27,11.11,2.77
			c-0.93,2.78-1.86,5.57-2.79,8.35C196.42,212.87,194.66,212.85,192.89,212.82z"/>
		<path class="st8" d="M435.38,546.58c-0.96,0.99-1.93,1.98-2.89,2.97C430.34,545.56,434.22,547.38,435.38,546.58z"/>
		<path class="st15" d="M513.87,360.38c-0.99,0.92-1.99,1.85-2.98,2.77C511.88,362.23,512.87,361.31,513.87,360.38z"/>
		<path class="st15" d="M502.26,371.42c-0.87,0.84-1.74,1.68-2.61,2.52C500.52,373.1,501.39,372.26,502.26,371.42z"/>
		<path class="st15" d="M505.14,368.65c-0.9,0.87-1.8,1.73-2.7,2.6C503.35,370.38,504.25,369.52,505.14,368.65z"/>
		<path class="st15" d="M508.01,365.89c-0.92,0.89-1.84,1.77-2.76,2.66C506.17,367.66,507.09,366.78,508.01,365.89z"/>
		<path class="st15" d="M510.9,363.14c-0.95,0.9-1.89,1.8-2.84,2.7C509.01,364.94,509.95,364.04,510.9,363.14z"/>
		<path class="st6" d="M437.76,543.48c2.15-3.11,5.03-4.97,8.89-5.16C445.88,543.8,441.95,543.87,437.76,543.48z"/>
		<path class="st13" d="M159.55,187.99c3.16,2.7,2.1,6.27,2.01,9.64C159.14,194.79,159,191.46,159.55,187.99z"/>
	</g>
</g>
</svg>
